ply
format ascii 1.0
element vertex 51
property float x
property float y
property float z
end_header
-6.27908182144165 -4.310166358947754 14.88480281829834
-3.519564151763916 -2.819573163986206 10.538525581359863
-1.5553319454193115 -1.2736576795578003 6.123353958129883
-4.028610706329346 -1.7585357427597046 8.854857444763184
-1.5140948295593262 -1.083844780921936 5.566431045532227
-2.9773268699645996 -1.2444120645523071 6.403570652008057
-2.517897605895996 -0.3114318251609802 4.796022891998291
-2.34354567527771 -0.2353718876838684 4.659865856170654
-2.3403334617614746 -0.21255174279212952 4.607389450073242
-1.5264469385147095 0.8423308730125427 5.432381629943848
-4.023860931396484 -1.7539589405059814 8.840579986572266
-1.5112582445144653 -1.0770431756973267 5.539809226989746
-2.9794199466705322 -1.2483501434326172 6.410783767700195
-2.9468138217926025 -1.252666711807251 6.440367221832275
-2.4956753253936768 -0.3042863607406616 4.712472915649414
-2.5107524394989014 -0.30936774611473083 4.773288249969482
-2.3424489498138428 -0.21234604716300964 4.611497402191162
-1.6097521781921387 0.8284053802490234 5.401176452636719
-1.5257115364074707 0.8435110449790955 5.427692413330078
-2.6352968215942383 0.7951439619064331 4.6951494216918945
-1.5227149724960327 -1.2405693531036377 5.958946228027344
-4.011257171630859 -1.7477046251296997 8.803577423095703
-1.5112582445144653 -1.0770431756973267 5.539809226989746
-2.5192649364471436 -0.311259925365448 4.800411701202393
-2.3441038131713867 -0.2128315567970276 4.618741989135742
-1.6079822778701782 0.8233879208564758 5.383796691894531
-2.6428208351135254 0.7973001599311829 4.716796398162842
-1.5241161584854126 0.8438622951507568 5.416327953338623
-1.5194714069366455 -1.2313172817230225 5.926456451416016
-1.5143530368804932 -1.2012784481048584 5.906872272491455
-1.5081405639648438 -1.0706855058670044 5.510974407196045
-2.5211567878723145 -0.30923882126808167 4.793511390686035
-2.3565783500671387 -0.2164355218410492 4.66492223739624
-2.3573904037475586 -0.18933172523975372 4.603602409362793
-3.941793441772461 -1.8204230070114136 8.7756986618042
-6.083713531494141 -2.9889564514160156 14.919958114624023
-1.5198707580566406 -1.0856631994247437 5.568124771118164
-1.5249767303466797 -1.120497703552246 5.761745452880859
-1.5012880563735962 -1.0424189567565918 5.584814548492432
-2.5208513736724854 -0.30670663714408875 4.7927069664001465
-1.5890626907348633 -0.3229043483734131 5.087097644805908
-1.5148195028305054 -1.08170747756958 5.524179458618164
-1.6355031728744507 -0.3133203983306885 5.047554016113281
-12.391471862792969 -2.248957395553589 39.15943908691406
-2.3329756259918213 -0.21330206096172333 4.591403484344482
-2.9419193267822266 -0.386627197265625 8.556767463684082
-1.5781184434890747 -0.3241828978061676 5.065845966339111
-1.7409237623214722 -0.26631027460098267 5.144932746887207
-2.336256742477417 -0.21046672761440277 4.593682289123535
-2.3672449588775635 -0.21950531005859375 4.709507465362549
-2.8356010913848877 -0.36417442560195923 8.095475196838379
